HIERARCHY
ROOT root
{
	OFFSET	0	13.1	24.9
	CHANNELS 6  Xposition Yposition Zposition Xrotation Yrotation Zrotation
	JOINT spine_1
	{
		OFFSET	0	9.99999	0
		CHANNELS 3  Xrotation Yrotation Zrotation
		JOINT spine_2
		{
			OFFSET	0	112	-10
			CHANNELS 3  Xrotation Yrotation Zrotation
			JOINT spine_3
			{
				OFFSET	0	206.5	19.3
				CHANNELS 3  Xrotation Yrotation Zrotation
				JOINT spine_4
				{
					OFFSET	0	110.4	14.6
					CHANNELS 3  Xrotation Yrotation Zrotation
					JOINT neck_1
					{
						OFFSET	0	71.8	-50.3
						CHANNELS 3  Xrotation Yrotation Zrotation
						JOINT neck_2
						{
							OFFSET	0	86.2	-25.8
							CHANNELS 3  Xrotation Yrotation Zrotation
							JOINT head_ee
							{
								OFFSET	0	179.8	-8.7
								CHANNELS 3  Xrotation Yrotation Zrotation
								End Site
								{
									OFFSET	1	0	0
								}
							}
						}
					}
					JOINT left_clavicle
					{
						OFFSET	-43.2	22.4	-70.8
						CHANNELS 3  Xrotation Yrotation Zrotation
						JOINT left_shoulder
						{
							OFFSET	-93.9	-5.79999	48.7
							CHANNELS 3  Xrotation Yrotation Zrotation
							JOINT left_elbow
							{
								OFFSET	-291.4	-30.8	15.2
								CHANNELS 3  Xrotation Yrotation Zrotation
								JOINT left_lowarm_twist
								{
									OFFSET	-110.7	-3.89999	13.6
									CHANNELS 3  Xrotation Yrotation Zrotation
									JOINT left_hand
									{
										OFFSET	-110.7	-3.89999	13.6
										CHANNELS 3  Xrotation Yrotation Zrotation
										JOINT left_ee
										{
											OFFSET	-80.8	-5.10001	12.1
											CHANNELS 3  Xrotation Yrotation Zrotation
											End Site
											{
												OFFSET	1	0	0
											}
										}
									}
								}
							}
						}
					}
					JOINT right_clavicle
					{
						OFFSET	43.2	22.4	-70.8
						CHANNELS 3  Xrotation Yrotation Zrotation
						JOINT right_shoulder
						{
							OFFSET	93.9	-5.79999	48.7
							CHANNELS 3  Xrotation Yrotation Zrotation
							JOINT right_elbow
							{
								OFFSET	291.4	-30.8	15.2
								CHANNELS 3  Xrotation Yrotation Zrotation
								JOINT right_lowarm_twist
								{
									OFFSET	110.7	-3.89999	13.6
									CHANNELS 3  Xrotation Yrotation Zrotation
									JOINT right_hand
									{
										OFFSET	110.7	-3.89999	13.6
										CHANNELS 3  Xrotation Yrotation Zrotation
										JOINT right_ee
										{
											OFFSET	80.8	-5.10001	12.1
											CHANNELS 3  Xrotation Yrotation Zrotation
											End Site
											{
												OFFSET	1	0	0
											}
										}
									}
								}
							}
						}
					}
				}
			}
		}
	}
	JOINT left_hip
	{
		OFFSET	-82.8	-127.5	0.300001
		CHANNELS 3  Xrotation Yrotation Zrotation
		JOINT left_knee
		{
			OFFSET	-28.2	-396.7	2.2
			CHANNELS 3  Xrotation Yrotation Zrotation
			JOINT left_ankle
			{
				OFFSET	-11.7	-411.3	35.4
				CHANNELS 3  Xrotation Yrotation Zrotation
				JOINT left_toes
				{
					OFFSET	0	-60	-88.6
					CHANNELS 3  Xrotation Yrotation Zrotation
					JOINT left_foot_ee
					{
						OFFSET	-22.5	-16.5	-42.2
						CHANNELS 3  Xrotation Yrotation Zrotation
						End Site
						{
							OFFSET	1	0	0
						}
					}
				}
			}
		}
	}
	JOINT right_hip
	{
		OFFSET	82.8	-127.5	0.300001
		CHANNELS 3  Xrotation Yrotation Zrotation
		JOINT right_knee
		{
			OFFSET	28.2	-396.7	2.2
			CHANNELS 3  Xrotation Yrotation Zrotation
			JOINT right_ankle
			{
				OFFSET	11.7	-411.3	35.4
				CHANNELS 3  Xrotation Yrotation Zrotation
				JOINT right_toes
				{
					OFFSET	0	-60	-88.6
					CHANNELS 3  Xrotation Yrotation Zrotation
					JOINT right_foot_ee
					{
						OFFSET	22.5	-16.5	-42.2
						CHANNELS 3  Xrotation Yrotation Zrotation
						End Site
						{
							OFFSET	1	0	0
						}
					}
				}
			}
		}
	}
}
MOTION
Frames: 14
Frame Time: 0.02
3177.02 653.055 -1669.29 1.53080308008 18.1154574425 8.21848866984 -3.43172 -0.632977 -3.22619 -3.42603 -0.426515 -3.25988 -3.39301 0.461882 -3.25506 -3.40779 -0.0577035 -3.28713 4.94854 14.3675 5.59113 5.38606 19.8244 7.01789 -0.0 0.0 -0.0 7.56372 -0.76279 14.7197 -14.0996 -12.4672 71.5629 0.342079 -9.61795 0.0287793 23.8626 0.214942 -3.0187 1.22633 12.5794 13.0284 -0.0 0.0 -0.0 4.59245 12.3518 -8.1749 16.0421 27.5419 -58.8447 1.3164 33.1071 -0.39129 25.9759 -0.173101 3.28539 -0.373472 2.37778 3.51438 0.0 0.0 0.0 14.5196 -31.8346 -13.5814 -0.850747 0.0340942 0.126105 -6.87065 10.7853 1.02022 4.40227 -0.0 -0.0 -0.0 0.0 -0.0 -13.2664 10.7321 -7.81297 -11.9012 -0.304225 -1.79781 27.6562 -10.5575 3.64198 19.6129 -0.0 -0.0 0.0 0.0 0.0 
3160.55051531 656.599 -1688.48130623 2.11081299254 17.8285574967 8.53656292854 -3.59942 -0.671978 -3.37362 -3.5932 -0.456072 -3.40949 -3.55617 0.48318 -3.40576 -3.57235 -0.0604293 -3.43929 4.73786 14.5929 6.30646 5.16964 19.6413 7.85795 -0.0 0.0 -0.0 7.77277 -2.24307 15.1488 -12.4357 -12.7613 71.3328 0.349542 -9.82374 0.0300394 24.0937 0.210845 -3.04794 1.20001 12.8631 12.9589 -0.0 0.0 -0.0 4.61167 12.1201 -8.2319 14.3798 26.8128 -58.5718 1.26072 31.9844 -0.361334 25.5062 -0.183251 3.22625 -0.372364 2.07609 3.37745 0.0 0.0 0.0 14.3952 -32.1272 -13.0481 -4.04311 0.145224 0.603371 -7.05545 11.1004 1.04821 5.28826 -0.0 -0.0 -0.0 0.0 -0.0 -13.1921 12.117 -7.6706 -14.4424 -0.320432 -2.18734 26.6922 -10.9226 3.53488 19.7782 -0.0 -0.0 0.0 0.0 0.0 
3160.39573543 656.599 -1688.34738672 2.11638973184 18.2919538385 8.51857458124 -3.59942 -0.671978 -3.37362 -3.5932 -0.456072 -3.40949 -3.55617 0.48318 -3.40576 -3.57235 -0.0604293 -3.43929 4.73786 14.5929 6.30646 5.16964 19.6413 7.85795 -0.0 0.0 -0.0 7.77277 -2.24307 15.1488 -12.4357 -12.7613 71.3328 0.349542 -9.82374 0.0300394 24.0937 0.210845 -3.04794 1.20001 12.8631 12.9589 -0.0 0.0 -0.0 4.61167 12.1201 -8.2319 14.3798 26.8128 -58.5718 1.26072 31.9844 -0.361334 25.5062 -0.183251 3.22625 -0.372364 2.07609 3.37745 0.0 0.0 0.0 14.3952 -32.1272 -13.0481 -4.04311 0.145224 0.603371 -7.05545 11.1004 1.04821 5.28826 -0.0 -0.0 -0.0 0.0 -0.0 -13.1921 12.117 -7.6706 -14.4424 -0.320432 -2.18734 26.6922 -10.9226 3.53488 19.7782 -0.0 -0.0 0.0 0.0 0.0 
3160.25616901 656.599 -1688.22473347 2.12159838752 18.7126233283 8.50216133698 -3.59942 -0.671978 -3.37362 -3.5932 -0.456072 -3.40949 -3.55617 0.48318 -3.40576 -3.57235 -0.0604293 -3.43929 4.73786 14.5929 6.30646 5.16964 19.6413 7.85795 -0.0 0.0 -0.0 7.77277 -2.24307 15.1488 -12.4357 -12.7613 71.3328 0.349542 -9.82374 0.0300394 24.0937 0.210845 -3.04794 1.20001 12.8631 12.9589 -0.0 0.0 -0.0 4.61167 12.1201 -8.2319 14.3798 26.8128 -58.5718 1.26072 31.9844 -0.361334 25.5062 -0.183251 3.22625 -0.372364 2.07609 3.37745 0.0 0.0 0.0 14.3952 -32.1272 -13.0481 -4.04311 0.145224 0.603371 -7.05545 11.1004 1.04821 5.28826 -0.0 -0.0 -0.0 0.0 -0.0 -13.1921 12.117 -7.6706 -14.4424 -0.320432 -2.18734 26.6922 -10.9226 3.53488 19.7782 -0.0 -0.0 0.0 0.0 0.0 
3127.7234476 661.978 -1729.07920289 2.41869333604 17.8770316506 8.90013198321 -3.75306 -0.782346 -3.31567 -3.74712 -0.569898 -3.35867 -3.70354 0.368359 -3.38667 -3.7195 -0.170806 -3.40234 6.33722 15.3416 6.68746 6.82827 20.1396 8.23186 -0.0 0.0 -0.0 7.71458 -2.2806 15.0304 -11.1042 -12.9028 70.3222 0.351286 -9.87178 0.0303376 24.5745 0.201946 -3.10871 1.06748 13.1949 12.2214 -0.0 0.0 -0.0 4.15128 10.8612 -7.3569 10.867 25.2214 -59.026 1.15576 29.7915 -0.307443 24.9815 -0.194013 3.1601 -0.428046 0.891663 3.24256 0.0 0.0 0.0 14.7053 -32.1993 -11.5188 -8.78607 0.260819 1.32185 -8.92531 12.7428 1.33198 7.12198 -0.0 -0.0 -0.0 0.0 -0.0 -12.5535 10.9811 -7.41599 -18.712 -0.308742 -2.84217 27.7303 -12.3456 3.66035 20.2613 -0.0 -0.0 0.0 0.0 0.0 
3101.15190346 666.708 -1787.33708174 4.09943903428 15.6345566874 7.95253848084 -3.85429 -0.711843 -3.15087 -3.84891 -0.510007 -3.18972 -3.81126 0.385946 -3.20708 -3.82559 -0.125124 -3.22778 10.1944 17.0247 7.46174 10.7984 21.0616 9.06126 -0.0 0.0 -0.0 7.92603 -8.55952 15.3962 -7.16953 -13.1949 67.7611 0.379371 -10.6436 0.0353391 27.1365 0.145946 -3.43116 0.379362 14.4796 8.31528 -0.0 0.0 -0.0 3.85035 10.2021 -6.77817 6.55789 23.9781 -61.7201 0.923331 24.5786 -0.201142 22.7722 -0.232673 2.88055 -0.336458 1.45677 2.87081 0.0 0.0 0.0 13.2339 -32.4901 -8.85519 -16.9272 0.319565 2.56856 4.41018 16.9584 -0.645505 10.9293 -0.0 -0.0 -0.0 0.0 -0.0 -11.0819 17.0989 -8.30851 -24.6995 -0.210334 -3.75525 27.4239 -13.8898 3.63729 22.709 -0.0 -0.0 0.0 0.0 0.0 
3100.65205651 666.708 -1787.01433388 4.10434188556 15.8768737349 7.93448256151 -3.85429 -0.711843 -3.15087 -3.84891 -0.510007 -3.18972 -3.81126 0.385946 -3.20708 -3.82559 -0.125124 -3.22778 10.1944 17.0247 7.46174 10.7984 21.0616 9.06126 -0.0 0.0 -0.0 7.92603 -8.55952 15.3962 -7.16953 -13.1949 67.7611 0.379371 -10.6436 0.0353391 27.1365 0.145946 -3.43116 0.379362 14.4796 8.31528 -0.0 0.0 -0.0 3.85035 10.2021 -6.77817 6.55789 23.9781 -61.7201 0.923331 24.5786 -0.201142 22.7722 -0.232673 2.88055 -0.336458 1.45677 2.87081 0.0 0.0 0.0 13.2339 -32.4901 -8.85519 -16.9272 0.319565 2.56856 4.41018 16.9584 -0.645505 10.9293 -0.0 -0.0 -0.0 0.0 -0.0 -11.0819 17.0989 -8.30851 -24.6995 -0.210334 -3.75525 27.4239 -13.8898 3.63729 22.709 -0.0 -0.0 0.0 0.0 0.0 
3100.30303969 666.708 -1786.78718967 4.1078240874 16.0464657617 7.92181975716 -3.85429 -0.711843 -3.15087 -3.84891 -0.510007 -3.18972 -3.81126 0.385946 -3.20708 -3.82559 -0.125124 -3.22778 10.1944 17.0247 7.46174 10.7984 21.0616 9.06126 -0.0 0.0 -0.0 7.92603 -8.55952 15.3962 -7.16953 -13.1949 67.7611 0.379371 -10.6436 0.0353391 27.1365 0.145946 -3.43116 0.379362 14.4796 8.31528 -0.0 0.0 -0.0 3.85035 10.2021 -6.77817 6.55789 23.9781 -61.7201 0.923331 24.5786 -0.201142 22.7722 -0.232673 2.88055 -0.336458 1.45677 2.87081 0.0 0.0 0.0 13.2339 -32.4901 -8.85519 -16.9272 0.319565 2.56856 4.41018 16.9584 -0.645505 10.9293 -0.0 -0.0 -0.0 0.0 -0.0 -11.0819 17.0989 -8.30851 -24.6995 -0.210334 -3.75525 27.4239 -13.8898 3.63729 22.709 -0.0 -0.0 0.0 0.0 0.0 
3099.71396856 666.708 -1786.40045677 4.11381252163 16.3334503208 7.9003422615 -3.85429 -0.711843 -3.15087 -3.84891 -0.510007 -3.18972 -3.81126 0.385946 -3.20708 -3.82559 -0.125124 -3.22778 10.1944 17.0247 7.46174 10.7984 21.0616 9.06126 -0.0 0.0 -0.0 7.92603 -8.55952 15.3962 -7.16953 -13.1949 67.7611 0.379371 -10.6436 0.0353391 27.1365 0.145946 -3.43116 0.379362 14.4796 8.31528 -0.0 0.0 -0.0 3.85035 10.2021 -6.77817 6.55789 23.9781 -61.7201 0.923331 24.5786 -0.201142 22.7722 -0.232673 2.88055 -0.336458 1.45677 2.87081 0.0 0.0 0.0 13.2339 -32.4901 -8.85519 -16.9272 0.319565 2.56856 4.41018 16.9584 -0.645505 10.9293 -0.0 -0.0 -0.0 0.0 -0.0 -11.0819 17.0989 -8.30851 -24.6995 -0.210334 -3.75525 27.4239 -13.8898 3.63729 22.709 -0.0 -0.0 0.0 0.0 0.0 
3098.84923692 666.708 -1785.8250307 4.12286060112 16.7564614027 7.86856891909 -3.85429 -0.711843 -3.15087 -3.84891 -0.510007 -3.18972 -3.81126 0.385946 -3.20708 -3.82559 -0.125124 -3.22778 10.1944 17.0247 7.46174 10.7984 21.0616 9.06126 -0.0 0.0 -0.0 7.92603 -8.55952 15.3962 -7.16953 -13.1949 67.7611 0.379371 -10.6436 0.0353391 27.1365 0.145946 -3.43116 0.379362 14.4796 8.31528 -0.0 0.0 -0.0 3.85035 10.2021 -6.77817 6.55789 23.9781 -61.7201 0.923331 24.5786 -0.201142 22.7722 -0.232673 2.88055 -0.336458 1.45677 2.87081 0.0 0.0 0.0 13.2339 -32.4901 -8.85519 -16.9272 0.319565 2.56856 4.41018 16.9584 -0.645505 10.9293 -0.0 -0.0 -0.0 0.0 -0.0 -11.0819 17.0989 -8.30851 -24.6995 -0.210334 -3.75525 27.4239 -13.8898 3.63729 22.709 -0.0 -0.0 0.0 0.0 0.0 
3085.52380224 672.665 -1810.66106603 4.88413571536 16.9776068775 7.66187162432 -3.94035 -0.595377 -3.2091 -3.93471 -0.390078 -3.24043 -3.9033 0.520576 -3.22206 -3.91778 0.00546031 -3.2638 9.41268 17.0855 8.16095 9.99276 20.7685 9.92148 -0.0 0.0 -0.0 7.89894 -8.02192 15.3518 -5.41135 -14.5233 65.5038 0.454609 -12.6915 0.050557 27.6964 0.131789 -3.50128 0.673934 13.5324 9.82426 -0.0 0.0 -0.0 3.80259 9.99566 -6.69426 3.94393 23.179 -62.1302 0.838072 22.5459 -0.167055 22.1047 -0.24223 2.79582 0.163885 1.72733 -0.369272 0.0 0.0 0.0 11.4685 -32.818 -7.98434 -19.4252 0.302034 2.9514 7.49401 19.9511 -1.0977 11.6741 -0.0 -0.0 -0.0 0.0 -0.0 -8.08184 13.8494 -8.81605 -32.1588 0.0446586 -4.87083 31.2399 -13.5573 4.05415 22.5261 -0.0 -0.0 0.0 0.0 0.0 
3072.0420891 676.004 -1836.25988405 7.06354780674 19.2937078553 6.36671966259 -4.1239 -0.462394 -2.98214 -4.119 -0.271783 -3.00549 -4.0967 0.579423 -2.96164 -4.10893 0.104637 -3.01593 7.46485 15.826 9.63407 7.9176 17.9293 11.6964 -0.0 0.0 -0.0 7.94287 -7.86711 15.4481 -4.70987 -16.4306 62.2509 0.618487 -17.0341 0.0926227 28.067 0.122042 -3.54762 0.576119 9.88512 7.81099 -0.0 0.0 -0.0 3.74333 10.0259 -6.56893 0.735117 22.281 -63.1758 0.749892 20.3787 -0.134785 22.0407 -0.243094 2.78769 0.156744 -0.846165 -1.40064 0.0 0.0 0.0 7.61933 -33.4196 -6.70333 -19.0751 0.305497 2.89779 11.6501 24.1525 -1.71577 12.4335 -0.0 -0.0 -0.0 0.0 -0.0 -1.10448 18.4413 -11.7972 -45.0932 0.82217 -6.69607 33.4287 -16.4661 4.31808 25.3094 -0.0 -0.0 0.0 0.0 0.0 
3063.28728631 676.004 -1830.42402432 7.20790705114 22.3269678658 5.96053321409 -4.1239 -0.462394 -2.98214 -4.119 -0.271783 -3.00549 -4.0967 0.579423 -2.96164 -4.10893 0.104637 -3.01593 7.46485 15.826 9.63407 7.9176 17.9293 11.6964 -0.0 0.0 -0.0 7.94287 -7.86711 15.4481 -4.70987 -16.4306 62.2509 0.618487 -17.0341 0.0926227 28.067 0.122042 -3.54762 0.576119 9.88512 7.81099 -0.0 0.0 -0.0 3.74333 10.0259 -6.56893 0.735117 22.281 -63.1758 0.749892 20.3787 -0.134785 22.0407 -0.243094 2.78769 0.156744 -0.846165 -1.40064 0.0 0.0 0.0 7.61933 -33.4196 -6.70333 -19.0751 0.305497 2.89779 11.6501 24.1525 -1.71577 12.4335 -0.0 -0.0 -0.0 0.0 -0.0 -1.10448 18.4413 -11.7972 -45.0932 0.82217 -6.69607 33.4287 -16.4661 4.31808 25.3094 -0.0 -0.0 0.0 0.0 0.0 
3056.23174942 676.004 -1825.20504892 7.34899844825 24.8561048828 5.6080798301 -4.1239 -0.462394 -2.98214 -4.119 -0.271783 -3.00549 -4.0967 0.579423 -2.96164 -4.10893 0.104637 -3.01593 7.46485 15.826 9.63407 7.9176 17.9293 11.6964 -0.0 0.0 -0.0 7.94287 -7.86711 15.4481 -4.70987 -16.4306 62.2509 0.618487 -17.0341 0.0926227 28.067 0.122042 -3.54762 0.576119 9.88512 7.81099 -0.0 0.0 -0.0 3.74333 10.0259 -6.56893 0.735117 22.281 -63.1758 0.749892 20.3787 -0.134785 22.0407 -0.243094 2.78769 0.156744 -0.846165 -1.40064 0.0 0.0 0.0 7.61933 -33.4196 -6.70333 -19.0751 0.305497 2.89779 11.6501 24.1525 -1.71577 12.4335 -0.0 -0.0 -0.0 0.0 -0.0 -1.10448 18.4413 -11.7972 -45.0932 0.82217 -6.69607 33.4287 -16.4661 4.31808 25.3094 -0.0 -0.0 0.0 0.0 0.0 
